<?xml version="1.0" encoding="UTF-8"?>
<!DOCTYPE svg PUBLIC "-//W3C//DTD SVG 1.1//EN" "http://www.w3.org/Graphics/SVG/1.1/DTD/svg11.dtd">
<svg xmlns="http://www.w3.org/2000/svg" version="1.1" width="500px" height="500px" style="shape-rendering:geometricPrecision; text-rendering:geometricPrecision; image-rendering:optimizeQuality; fill-rule:evenodd; clip-rule:evenodd" xmlns:xlink="http://www.w3.org/1999/xlink">
<g><path style="opacity:0.004" fill="#000000" d="M 314.5,9.5 C 315.833,10.1667 315.833,10.1667 314.5,9.5 Z"/></g>
<g><path style="opacity:0.004" fill="#000000" d="M 279.5,20.5 C 280.833,21.1667 280.833,21.1667 279.5,20.5 Z"/></g>
<g><path style="opacity:0.004" fill="#000000" d="M 345.5,24.5 C 346.833,25.1667 346.833,25.1667 345.5,24.5 Z"/></g>
<g><path style="opacity:0.004" fill="#000000" d="M 437.5,34.5 C 438.833,35.1667 438.833,35.1667 437.5,34.5 Z"/></g>
<g><path style="opacity:0.004" fill="#000000" d="M 141.5,35.5 C 142.833,36.1667 142.833,36.1667 141.5,35.5 Z"/></g>
<g><path style="opacity:0.004" fill="#000000" d="M 174.5,42.5 C 175.833,43.1667 175.833,43.1667 174.5,42.5 Z"/></g>
<g><path style="opacity:0.004" fill="#000000" d="M 293.5,48.5 C 294.833,49.1667 294.833,49.1667 293.5,48.5 Z"/></g>
<g><path style="opacity:0.004" fill="#000000" d="M 311.5,51.5 C 312.833,52.1667 312.833,52.1667 311.5,51.5 Z"/></g>
<g><path style="opacity:0.004" fill="#000000" d="M 322.5,52.5 C 323.833,53.1667 323.833,53.1667 322.5,52.5 Z"/></g>
<g><path style="opacity:0.004" fill="#000000" d="M 450.5,52.5 C 451.833,53.1667 451.833,53.1667 450.5,52.5 Z"/></g>
<g><path style="opacity:0.004" fill="#000000" d="M 407.5,53.5 C 408.833,54.1667 408.833,54.1667 407.5,53.5 Z"/></g>
<g><path style="opacity:0.004" fill="#000000" d="M 486.5,59.5 C 487.833,60.1667 487.833,60.1667 486.5,59.5 Z"/></g>
<g><path style="opacity:0.004" fill="#000000" d="M 173.5,61.5 C 174.833,62.1667 174.833,62.1667 173.5,61.5 Z"/></g>
<g><path style="opacity:0.004" fill="#000000" d="M 158.5,68.5 C 159.833,69.1667 159.833,69.1667 158.5,68.5 Z"/></g>
<g><path style="opacity:0.004" fill="#000000" d="M 144.5,72.5 C 145.833,73.1667 145.833,73.1667 144.5,72.5 Z"/></g>
<g><path style="opacity:0.004" fill="#000000" d="M 404.5,75.5 C 405.833,76.1667 405.833,76.1667 404.5,75.5 Z"/></g>
<g><path style="opacity:0.004" fill="#000000" d="M 0.5,83.5 C 1.83333,84.1667 1.83333,84.1667 0.5,83.5 Z"/></g>
<g><path style="opacity:0.004" fill="#000000" d="M 136.5,85.5 C 137.833,86.1667 137.833,86.1667 136.5,85.5 Z"/></g>
<g><path style="opacity:0.004" fill="#000000" d="M 103.5,92.5 C 104.833,93.1667 104.833,93.1667 103.5,92.5 Z"/></g>
<g><path style="opacity:0.004" fill="#000000" d="M 401.5,106.5 C 402.833,107.167 402.833,107.167 401.5,106.5 Z"/></g>
<g><path style="opacity:0.004" fill="#000000" d="M 58.5,108.5 C 59.8333,109.167 59.8333,109.167 58.5,108.5 Z"/></g>
<g><path style="opacity:0.004" fill="#000000" d="M 385.5,113.5 C 386.833,114.167 386.833,114.167 385.5,113.5 Z"/></g>
<g><path style="opacity:0.999" fill="#faf9f9" d="M 239.5,130.5 C 242.098,133.344 245.432,135.011 249.5,135.5C 266.61,144.61 279.276,157.943 287.5,175.5C 287.986,177.807 287.986,179.973 287.5,182C 288.736,183.085 290.069,183.918 291.5,184.5C 293.025,187.583 294.025,190.916 294.5,194.5C 294.054,197.01 294.72,199.01 296.5,200.5C 296.5,202.5 296.5,204.5 296.5,206.5C 296.5,211.833 296.5,217.167 296.5,222.5C 328.5,222.5 360.5,222.5 392.5,222.5C 392.5,235.167 392.5,247.833 392.5,260.5C 381.833,260.5 371.167,260.5 360.5,260.5C 360.666,254.158 360.5,247.825 360,241.5C 359.722,240.584 359.222,239.918 358.5,239.5C 357.317,238.496 355.984,237.662 354.5,237C 335.836,236.5 317.17,236.333 298.5,236.5C 298.5,251.5 298.5,266.5 298.5,281.5C 318.66,282.497 338.993,282.83 359.5,282.5C 359.5,293.5 359.5,304.5 359.5,315.5C 339.5,315.5 319.5,315.5 299.5,315.5C 295.003,314 291.003,311.667 287.5,308.5C 286.972,307.279 286.305,306.113 285.5,305C 282.721,304.439 280.054,303.606 277.5,302.5C 274.996,301.416 272.663,300.083 270.5,298.5C 270.511,296.983 271.177,295.816 272.5,295C 268.804,296.207 265.971,295.041 264,291.5C 262.989,292.337 261.822,292.67 260.5,292.5C 260.027,291.094 259.027,290.427 257.5,290.5C 257.027,289.094 256.027,288.427 254.5,288.5C 244.559,282.863 234.892,276.863 225.5,270.5C 225.196,269.85 224.863,269.183 224.5,268.5C 227.066,264.992 226.566,264.659 223,267.5C 222.717,264.258 221.883,263.924 220.5,266.5C 218.502,264.666 216.168,263.666 213.5,263.5C 211.566,262.89 209.899,261.89 208.5,260.5C 207.656,258.241 205.989,257.241 203.5,257.5C 202.542,257.047 201.708,256.381 201,255.5C 200.503,253.19 200.337,250.857 200.5,248.5C 201.329,240.677 201.829,232.677 202,224.5C 203.008,224.982 204.175,225.148 205.5,225C 206.126,225.75 206.626,226.584 207,227.5C 207.333,227.167 207.667,226.833 208,226.5C 208.249,227.624 208.749,228.624 209.5,229.5C 210.726,228.637 212.06,228.637 213.5,229.5C 220.816,233.806 228.149,238.139 235.5,242.5C 235.284,244.681 236.117,246.347 238,247.5C 239.488,246.804 240.988,247.138 242.5,248.5C 242.291,249.086 241.957,249.586 241.5,250C 244.461,251.265 247.461,252.431 250.5,253.5C 251.829,229.003 251.829,204.67 250.5,180.5C 250.395,174.931 249.228,169.597 247,164.5C 246.329,163.748 245.496,163.414 244.5,163.5C 244.5,163.167 244.5,162.833 244.5,162.5C 244.414,161.504 244.748,160.671 245.5,160C 243.096,159.492 242.429,158.325 243.5,156.5C 242.125,153.453 239.792,152.12 236.5,152.5C 234.833,151.5 233.5,150.167 232.5,148.5C 231.61,145.776 230.11,143.443 228,141.5C 227.667,142.167 227.333,142.833 227,143.5C 225.902,142.033 224.402,141.199 222.5,141C 222.167,140 221.833,139 221.5,138C 218.553,138.152 215.553,138.319 212.5,138.5C 209.282,137.046 205.782,136.379 202,136.5C 199.639,136.504 197.473,136.837 195.5,137.5C 187.726,139.316 180.393,142.316 173.5,146.5C 169.63,146.44 166.963,148.106 165.5,151.5C 164.914,151.291 164.414,150.957 164,150.5C 163.51,151.793 163.343,153.127 163.5,154.5C 160.134,154.909 159.134,156.575 160.5,159.5C 157.261,166.108 155.095,173.108 154,180.5C 153.333,214.833 153.333,249.167 154,283.5C 154.455,286.854 154.955,290.187 155.5,293.5C 155.678,296.216 156.178,298.883 157,301.5C 157.816,302.823 158.983,303.489 160.5,303.5C 162.412,305.657 164.079,307.991 165.5,310.5C 165.5,312.5 166.5,313.5 168.5,313.5C 176.394,320.342 185.394,324.675 195.5,326.5C 200.65,327.651 205.984,327.817 211.5,327C 212.056,326.617 212.389,326.117 212.5,325.5C 213.167,325.5 213.833,325.5 214.5,325.5C 217.987,325.095 221.32,324.095 224.5,322.5C 225.086,322.709 225.586,323.043 226,323.5C 227.897,321.601 230.064,320.101 232.5,319C 232.167,318.667 231.833,318.333 231.5,318C 234.857,316.45 237.191,313.95 238.5,310.5C 239.34,308.147 240.674,306.147 242.5,304.5C 243.873,304.657 245.207,304.49 246.5,304C 247.833,303.333 247.833,302.667 246.5,302C 247.766,301.691 248.933,301.191 250,300.5C 250.333,301.167 250.667,301.833 251,302.5C 251.423,301.044 252.256,300.544 253.5,301C 252.396,302.131 252.729,302.965 254.5,303.5C 255.417,302.873 256.417,302.539 257.5,302.5C 257.511,304.017 258.177,305.184 259.5,306C 262.279,306.561 264.946,307.394 267.5,308.5C 269.434,309.11 271.101,310.11 272.5,311.5C 272.55,314.152 273.55,315.152 275.5,314.5C 276.5,315 277.5,315.5 278.5,316C 277.483,317.049 277.316,318.216 278,319.5C 280.181,318.298 282.681,318.298 285.5,319.5C 290.24,321.286 294.407,323.952 298,327.5C 298.5,338.828 298.667,350.162 298.5,361.5C 317.901,361.963 337.235,361.463 356.5,360C 357.701,359.097 358.535,357.931 359,356.5C 359.5,349.842 359.666,343.175 359.5,336.5C 370.5,336.5 381.5,336.5 392.5,336.5C 392.5,349.167 392.5,361.833 392.5,374.5C 345.5,374.5 298.5,374.5 251.5,374.5C 251.83,358.991 251.496,343.658 250.5,328.5C 249.508,328.328 248.842,328.662 248.5,329.5C 246.396,330.912 244.063,331.912 241.5,332.5C 239.973,332.427 238.973,333.094 238.5,334.5C 234.042,336.449 229.376,337.782 224.5,338.5C 221.572,338.565 218.905,339.232 216.5,340.5C 196.984,343.521 178.317,340.855 160.5,332.5C 160.027,331.094 159.027,330.427 157.5,330.5C 157.167,330.5 156.833,330.5 156.5,330.5C 155.656,328.241 153.989,327.241 151.5,327.5C 151.027,326.094 150.027,325.427 148.5,325.5C 148.027,324.094 147.027,323.427 145.5,323.5C 144.5,322.833 143.5,322.167 142.5,321.5C 141.952,319.606 140.952,317.94 139.5,316.5C 139.709,315.914 140.043,315.414 140.5,315C 138.922,313.86 137.256,313.36 135.5,313.5C 136.025,312.808 136.692,312.308 137.5,312C 135.156,310.709 132.823,310.209 130.5,310.5C 126.738,307.071 123.738,303.071 121.5,298.5C 118.565,291.585 115.232,284.918 111.5,278.5C 111.85,274.946 111.184,271.612 109.5,268.5C 110.04,267.252 110.707,266.085 111.5,265C 109.258,263.578 107.591,261.745 106.5,259.5C 105.175,240.931 105.175,222.264 106.5,203.5C 108.245,199.8 109.245,195.8 109.5,191.5C 109.5,190.833 109.5,190.167 109.5,189.5C 112.165,187.165 113.498,184.165 113.5,180.5C 113.5,180.167 113.5,179.833 113.5,179.5C 115.975,178.313 116.975,176.313 116.5,173.5C 119.702,171.364 121.702,168.364 122.5,164.5C 124.688,160.793 127.355,157.46 130.5,154.5C 133.167,152.5 135.5,150.167 137.5,147.5C 158.588,128.129 183.588,119.962 212.5,123C 221.855,124.352 230.855,126.852 239.5,130.5 Z"/></g>
<g><path style="opacity:0.004" fill="#000000" d="M 44.5,132.5 C 45.8333,133.167 45.8333,133.167 44.5,132.5 Z"/></g>
<g><path style="opacity:0.853" fill="#9c9492" d="M 239.5,130.5 C 243.151,131.659 246.485,133.326 249.5,135.5C 245.432,135.011 242.098,133.344 239.5,130.5 Z"/></g>
<g><path style="opacity:0.259" fill="#aea9a8" d="M 195.5,137.5 C 197.473,136.837 199.639,136.504 202,136.5C 205.782,136.379 209.282,137.046 212.5,138.5C 206.862,137.78 201.196,137.447 195.5,137.5 Z"/></g>
<g><path style="opacity:0.956" fill="#c8c5c3" d="M 232.5,148.5 C 226.342,144.088 219.675,140.754 212.5,138.5C 215.553,138.319 218.553,138.152 221.5,138C 221.833,139 222.167,140 222.5,141C 224.402,141.199 225.902,142.033 227,143.5C 227.333,142.833 227.667,142.167 228,141.5C 230.11,143.443 231.61,145.776 232.5,148.5 Z"/></g>
<g><path style="opacity:0.004" fill="#000000" d="M 102.5,139.5 C 103.833,140.167 103.833,140.167 102.5,139.5 Z"/></g>
<g><path style="opacity:0.004" fill="#000000" d="M 316.5,144.5 C 317.833,145.167 317.833,145.167 316.5,144.5 Z"/></g>
<g><path style="opacity:0.169" fill="#5e5d5d" d="M 137.5,147.5 C 135.5,150.167 133.167,152.5 130.5,154.5C 131.833,151.167 134.167,148.833 137.5,147.5 Z"/></g>
<g><path style="opacity:0.004" fill="#000000" d="M 198.5,148.5 C 199.833,149.167 199.833,149.167 198.5,148.5 Z"/></g>
<g><path style="opacity:0.004" fill="#000000" d="M 203.5,151.5 C 204.833,152.167 204.833,152.167 203.5,151.5 Z"/></g>
<g><path style="opacity:0.98" fill="#ccc9c9" d="M 236.5,152.5 C 239.792,152.12 242.125,153.453 243.5,156.5C 242.429,158.325 243.096,159.492 245.5,160C 244.748,160.671 244.414,161.504 244.5,162.5C 241.484,159.48 238.817,156.146 236.5,152.5 Z"/></g>
<g><path style="opacity:0.938" fill="#c0bcbc" d="M 173.5,146.5 C 168.833,150.5 164.5,154.833 160.5,159.5C 159.134,156.575 160.134,154.909 163.5,154.5C 163.343,153.127 163.51,151.793 164,150.5C 164.414,150.957 164.914,151.291 165.5,151.5C 166.963,148.106 169.63,146.44 173.5,146.5 Z"/></g>
<g><path style="opacity:0.004" fill="#000000" d="M 197.5,163.5 C 198.833,164.167 198.833,164.167 197.5,163.5 Z"/></g>
<g><path style="opacity:0.914" fill="#b4b0b1" d="M 122.5,164.5 C 121.702,168.364 119.702,171.364 116.5,173.5C 117.759,169.975 119.759,166.975 122.5,164.5 Z"/></g>
<g><path style="opacity:0.004" fill="#000000" d="M 174.5,169.5 C 175.833,170.167 175.833,170.167 174.5,169.5 Z"/></g>
<g><path style="opacity:0.914" fill="#bdbab9" d="M 244.5,163.5 C 245.496,163.414 246.329,163.748 247,164.5C 249.228,169.597 250.395,174.931 250.5,180.5C 250.5,181.833 250.5,183.167 250.5,184.5C 250.167,184.5 249.833,184.5 249.5,184.5C 249.275,177.158 247.608,170.158 244.5,163.5 Z"/></g>
<g><path style="opacity:0.6" fill="#979291" d="M 116.5,173.5 C 116.975,176.313 115.975,178.313 113.5,179.5C 114.508,177.456 115.508,175.456 116.5,173.5 Z"/></g>
<g><path style="opacity:0.839" fill="#c2bab9" d="M 287.5,175.5 C 289.204,178.256 290.537,181.256 291.5,184.5C 290.069,183.918 288.736,183.085 287.5,182C 287.986,179.973 287.986,177.807 287.5,175.5 Z"/></g>
<g><path style="opacity:0.698" fill="#afa9ac" d="M 113.5,180.5 C 113.498,184.165 112.165,187.165 109.5,189.5C 110.075,186.088 111.408,183.088 113.5,180.5 Z"/></g>
<g><path style="opacity:0.004" fill="#000000" d="M 207.5,185.5 C 208.833,186.167 208.833,186.167 207.5,185.5 Z"/></g>
<g><path style="opacity:0.004" fill="#000000" d="M 18.5,187.5 C 19.8333,188.167 19.8333,188.167 18.5,187.5 Z"/></g>
<g><path style="opacity:0.004" fill="#000000" d="M 32.5,191.5 C 33.8333,192.167 33.8333,192.167 32.5,191.5 Z"/></g>
<g><path style="opacity:0.004" fill="#000000" d="M 97.5,194.5 C 98.8333,195.167 98.8333,195.167 97.5,194.5 Z"/></g>
<g><path style="opacity:0.4" fill="#7f7d7d" d="M 294.5,194.5 C 295.458,196.302 296.125,198.302 296.5,200.5C 294.72,199.01 294.054,197.01 294.5,194.5 Z"/></g>
<g><path style="opacity:0.533" fill="#adaaa9" d="M 109.5,191.5 C 109.245,195.8 108.245,199.8 106.5,203.5C 106.755,199.2 107.755,195.2 109.5,191.5 Z"/></g>
<g><path style="opacity:0.055" fill="#493c3c" d="M 249.5,184.5 C 249.833,184.5 250.167,184.5 250.5,184.5C 250.5,206.833 250.5,229.167 250.5,251.5C 248.821,251.715 247.821,251.048 247.5,249.5C 248.117,249.611 248.617,249.944 249,250.5C 249.5,228.503 249.667,206.503 249.5,184.5 Z"/></g>
<g><path style="opacity:0.004" fill="#000000" d="M 30.5,211.5 C 31.8333,212.167 31.8333,212.167 30.5,211.5 Z"/></g>
<g><path style="opacity:0.004" fill="#000000" d="M -0.5,216.5 C 0.833333,217.167 0.833333,217.167 -0.5,216.5 Z"/></g>
<g><path style="opacity:0.233" fill="#ada9a6" d="M 296.5,206.5 C 298.145,211.234 298.811,216.234 298.5,221.5C 330.004,221.168 361.338,221.502 392.5,222.5C 360.5,222.5 328.5,222.5 296.5,222.5C 296.5,217.167 296.5,211.833 296.5,206.5 Z"/></g>
<g><path style="opacity:0.004" fill="#000000" d="M 180.5,224.5 C 181.833,225.167 181.833,225.167 180.5,224.5 Z"/></g>
<g><path style="opacity:0.953" fill="#8e8a89" d="M 213.5,229.5 C 212.06,228.637 210.726,228.637 209.5,229.5C 208.749,228.624 208.249,227.624 208,226.5C 207.667,226.833 207.333,227.167 207,227.5C 206.626,226.584 206.126,225.75 205.5,225C 204.175,225.148 203.008,224.982 202,224.5C 201.829,232.677 201.329,240.677 200.5,248.5C 200.5,239.833 200.5,231.167 200.5,222.5C 205.564,223.531 209.897,225.864 213.5,229.5 Z"/></g>
<g><path style="opacity:0.004" fill="#000000" d="M 57.5,225.5 C 58.8333,226.167 58.8333,226.167 57.5,225.5 Z"/></g>
<g><path style="opacity:0.655" fill="#e7e3e3" d="M 250.5,180.5 C 251.829,204.67 251.829,229.003 250.5,253.5C 247.461,252.431 244.461,251.265 241.5,250C 241.957,249.586 242.291,249.086 242.5,248.5C 240.988,247.138 239.488,246.804 238,247.5C 236.117,246.347 235.284,244.681 235.5,242.5C 239.528,244.845 243.528,247.178 247.5,249.5C 247.821,251.048 248.821,251.715 250.5,251.5C 250.5,229.167 250.5,206.833 250.5,184.5C 250.5,183.167 250.5,181.833 250.5,180.5 Z"/></g>
<g><path style="opacity:0.004" fill="#000000" d="M 181.5,233.5 C 182.833,234.167 182.833,234.167 181.5,233.5 Z"/></g>
<g><path style="opacity:0.004" fill="#000000" d="M 29.5,234.5 C 30.8333,235.167 30.8333,235.167 29.5,234.5 Z"/></g>
<g><path style="opacity:0.004" fill="#000000" d="M 456.5,245.5 C 457.833,246.167 457.833,246.167 456.5,245.5 Z"/></g>
<g><path style="opacity:0.004" fill="#000000" d="M 474.5,248.5 C 475.833,249.167 475.833,249.167 474.5,248.5 Z"/></g>
<g><path style="opacity:0.004" fill="#000000" d="M 342.5,251.5 C 343.833,252.167 343.833,252.167 342.5,251.5 Z"/></g>
<g><path style="opacity:0.753" fill="#9a9999" d="M 203.5,257.5 C 205.989,257.241 207.656,258.241 208.5,260.5C 206.566,259.89 204.899,258.89 203.5,257.5 Z"/></g>
<g><path style="opacity:0.651" fill="#bfbcbd" d="M 392.5,222.5 C 393.496,235.656 393.829,248.99 393.5,262.5C 382.167,262.5 370.833,262.5 359.5,262.5C 359.731,254.791 359.398,247.124 358.5,239.5C 359.222,239.918 359.722,240.584 360,241.5C 360.5,247.825 360.666,254.158 360.5,260.5C 371.167,260.5 381.833,260.5 392.5,260.5C 392.5,247.833 392.5,235.167 392.5,222.5 Z"/></g>
<g><path style="opacity:1" fill="#cfcccb" d="M 106.5,259.5 C 107.591,261.745 109.258,263.578 111.5,265C 110.707,266.085 110.04,267.252 109.5,268.5C 111.184,271.612 111.85,274.946 111.5,278.5C 108.277,272.705 106.61,266.372 106.5,259.5 Z"/></g>
<g><path style="opacity:1" fill="#d1cece" d="M 213.5,263.5 C 216.168,263.666 218.502,264.666 220.5,266.5C 221.883,263.924 222.717,264.258 223,267.5C 226.566,264.659 227.066,264.992 224.5,268.5C 224.863,269.183 225.196,269.85 225.5,270.5C 220.996,268.989 216.996,266.656 213.5,263.5 Z"/></g>
<g><path style="opacity:0.004" fill="#000000" d="M 70.5,267.5 C 71.8333,268.167 71.8333,268.167 70.5,267.5 Z"/></g>
<g><path style="opacity:0.004" fill="#000000" d="M 164.5,272.5 C 165.833,273.167 165.833,273.167 164.5,272.5 Z"/></g>
<g><path style="opacity:0.004" fill="#000000" d="M 362.5,272.5 C 363.833,273.167 363.833,273.167 362.5,272.5 Z"/></g>
<g><path style="opacity:0.004" fill="#000000" d="M 496.5,277.5 C 497.833,278.167 497.833,278.167 496.5,277.5 Z"/></g>
<g><path style="opacity:0.004" fill="#000000" d="M 205.5,279.5 C 206.833,280.167 206.833,280.167 205.5,279.5 Z"/></g>
<g><path style="opacity:0.004" fill="#000000" d="M 86.5,280.5 C 87.8333,281.167 87.8333,281.167 86.5,280.5 Z"/></g>
<g><path style="opacity:0.155" fill="#aea9a8" d="M 298.5,281.5 C 319.651,281.012 340.651,281.512 361.5,283C 360.575,293.972 360.242,304.972 360.5,316C 339.996,316.829 319.663,316.663 299.5,315.5C 319.5,315.5 339.5,315.5 359.5,315.5C 359.5,304.5 359.5,293.5 359.5,282.5C 338.993,282.83 318.66,282.497 298.5,281.5 Z"/></g>
<g><path style="opacity:0.957" fill="#bdb6b6" d="M 111.5,278.5 C 115.232,284.918 118.565,291.585 121.5,298.5C 116.599,292.699 113.266,286.032 111.5,278.5 Z"/></g>
<g><path style="opacity:0.075" fill="#737272" d="M 254.5,288.5 C 256.027,288.427 257.027,289.094 257.5,290.5C 255.973,290.573 254.973,289.906 254.5,288.5 Z"/></g>
<g><path style="opacity:0.047" fill="#6b6a6a" d="M 257.5,290.5 C 259.027,290.427 260.027,291.094 260.5,292.5C 258.973,292.573 257.973,291.906 257.5,290.5 Z"/></g>
<g><path style="opacity:0.998" fill="#cbc1be" d="M 270.5,298.5 C 266.827,297 263.494,295 260.5,292.5C 261.822,292.67 262.989,292.337 264,291.5C 265.971,295.041 268.804,296.207 272.5,295C 271.177,295.816 270.511,296.983 270.5,298.5 Z"/></g>
<g><path style="opacity:0.004" fill="#000000" d="M 5.5,298.5 C 6.83333,299.167 6.83333,299.167 5.5,298.5 Z"/></g>
<g><path style="opacity:0.745" fill="#c1bcba" d="M 155.5,293.5 C 157.15,296.799 158.816,300.132 160.5,303.5C 158.983,303.489 157.816,302.823 157,301.5C 156.178,298.883 155.678,296.216 155.5,293.5 Z"/></g>
<g><path style="opacity:0.988" fill="#d5d3d2" d="M 257.5,302.5 C 256.417,302.539 255.417,302.873 254.5,303.5C 252.729,302.965 252.396,302.131 253.5,301C 252.256,300.544 251.423,301.044 251,302.5C 250.667,301.833 250.333,301.167 250,300.5C 248.933,301.191 247.766,301.691 246.5,302C 247.833,302.667 247.833,303.333 246.5,304C 245.207,304.49 243.873,304.657 242.5,304.5C 243.397,301.035 245.064,298.035 247.5,295.5C 250.9,297.856 254.233,300.189 257.5,302.5 Z"/></g>
<g><path style="opacity:0.98" fill="#bab8b6" d="M 257.5,302.5 C 261.173,304 264.506,306 267.5,308.5C 264.946,307.394 262.279,306.561 259.5,306C 258.177,305.184 257.511,304.017 257.5,302.5 Z"/></g>
<g><path style="opacity:0.741" fill="#b8b3b3" d="M 277.5,302.5 C 280.054,303.606 282.721,304.439 285.5,305C 286.305,306.113 286.972,307.279 287.5,308.5C 283.495,307.502 280.161,305.502 277.5,302.5 Z"/></g>
<g><path style="opacity:1" fill="#d1cecf" d="M 130.5,310.5 C 132.823,310.209 135.156,310.709 137.5,312C 136.692,312.308 136.025,312.808 135.5,313.5C 137.256,313.36 138.922,313.86 140.5,315C 140.043,315.414 139.709,315.914 139.5,316.5C 140.952,317.94 141.952,319.606 142.5,321.5C 138.174,318.174 134.174,314.507 130.5,310.5 Z"/></g>
<g><path style="opacity:0.278" fill="#5f5f5e" d="M 165.5,310.5 C 166.833,311.167 167.833,312.167 168.5,313.5C 166.5,313.5 165.5,312.5 165.5,310.5 Z"/></g>
<g><path style="opacity:0.969" fill="#ceccca" d="M 272.5,311.5 C 277.372,313.429 281.705,316.095 285.5,319.5C 282.681,318.298 280.181,318.298 278,319.5C 277.316,318.216 277.483,317.049 278.5,316C 277.5,315.5 276.5,315 275.5,314.5C 273.55,315.152 272.55,314.152 272.5,311.5 Z"/></g>
<g><path style="opacity:0.004" fill="#000000" d="M 18.5,318.5 C 19.8333,319.167 19.8333,319.167 18.5,318.5 Z"/></g>
<g><path style="opacity:0.957" fill="#d1cbc8" d="M 238.5,310.5 C 237.191,313.95 234.857,316.45 231.5,318C 231.833,318.333 232.167,318.667 232.5,319C 230.064,320.101 227.897,321.601 226,323.5C 225.586,323.043 225.086,322.709 224.5,322.5C 221.32,324.095 217.987,325.095 214.5,325.5C 223.435,322.031 231.435,317.031 238.5,310.5 Z"/></g>
<g><path style="opacity:0.11" fill="#605f5b" d="M 145.5,323.5 C 147.027,323.427 148.027,324.094 148.5,325.5C 146.973,325.573 145.973,324.906 145.5,323.5 Z"/></g>
<g><path style="opacity:0.047" fill="#535353" d="M 148.5,325.5 C 150.027,325.427 151.027,326.094 151.5,327.5C 149.973,327.573 148.973,326.906 148.5,325.5 Z"/></g>
<g><path style="opacity:0.639" fill="#9e9b9a" d="M 212.5,325.5 C 212.389,326.117 212.056,326.617 211.5,327C 205.984,327.817 200.65,327.651 195.5,326.5C 201.196,326.553 206.862,326.22 212.5,325.5 Z"/></g>
<g><path style="opacity:0.773" fill="#9b9191" d="M 151.5,327.5 C 153.989,327.241 155.656,328.241 156.5,330.5C 154.566,329.89 152.899,328.89 151.5,327.5 Z"/></g>
<g><path style="opacity:0.004" fill="#000000" d="M 462.5,327.5 C 463.833,328.167 463.833,328.167 462.5,327.5 Z"/></g>
<g><path style="opacity:0.004" fill="#000000" d="M 98.5,331.5 C 99.8333,332.167 99.8333,332.167 98.5,331.5 Z"/></g>
<g><path style="opacity:0.031" fill="#343433" d="M 157.5,330.5 C 159.027,330.427 160.027,331.094 160.5,332.5C 158.973,332.573 157.973,331.906 157.5,330.5 Z"/></g>
<g><path style="opacity:0.004" fill="#363636" d="M 241.5,332.5 C 241.027,333.906 240.027,334.573 238.5,334.5C 238.973,333.094 239.973,332.427 241.5,332.5 Z"/></g>
<g><path style="opacity:0.043" fill="#494646" d="M 248.5,329.5 C 248.842,328.662 249.508,328.328 250.5,328.5C 250.5,343.833 250.5,359.167 250.5,374.5C 249.833,359.5 249.167,344.5 248.5,329.5 Z"/></g>
<g><path style="opacity:0.004" fill="#000000" d="M 129.5,337.5 C 130.833,338.167 130.833,338.167 129.5,337.5 Z"/></g>
<g><path style="opacity:0.055" fill="#504f4f" d="M 224.5,338.5 C 222.162,340.04 219.495,340.706 216.5,340.5C 218.905,339.232 221.572,338.565 224.5,338.5 Z"/></g>
<g><path style="opacity:0.004" fill="#000000" d="M 218.5,359.5 C 219.833,360.167 219.833,360.167 218.5,359.5 Z"/></g>
<g><path style="opacity:0.685" fill="#b6b4b5" d="M 250.5,328.5 C 251.496,343.658 251.83,358.991 251.5,374.5C 298.5,374.5 345.5,374.5 392.5,374.5C 392.5,361.833 392.5,349.167 392.5,336.5C 381.5,336.5 370.5,336.5 359.5,336.5C 370.654,335.505 381.988,335.172 393.5,335.5C 393.317,343.779 393.65,352.112 394.5,360.5C 393.857,365.698 393.19,370.865 392.5,376C 345.5,376.667 298.5,376.667 251.5,376C 250.944,375.617 250.611,375.117 250.5,374.5C 250.5,359.167 250.5,343.833 250.5,328.5 Z"/></g>
<g><path style="opacity:0.004" fill="#000000" d="M 349.5,339.5 C 350.833,340.167 350.833,340.167 349.5,339.5 Z"/></g>
<g><path style="opacity:0.004" fill="#000000" d="M 324.5,336.5 C 325.833,337.167 325.833,337.167 324.5,336.5 Z"/></g>
<g><path style="opacity:0.004" fill="#000000" d="M 27.5,376.5 C 28.8333,377.167 28.8333,377.167 27.5,376.5 Z"/></g>
<g><path style="opacity:0.004" fill="#000000" d="M 120.5,381.5 C 121.833,382.167 121.833,382.167 120.5,381.5 Z"/></g>
<g><path style="opacity:0.004" fill="#000000" d="M 178.5,385.5 C 179.833,386.167 179.833,386.167 178.5,385.5 Z"/></g>
<g><path style="opacity:0.004" fill="#000000" d="M 215.5,388.5 C 216.833,389.167 216.833,389.167 215.5,388.5 Z"/></g>
<g><path style="opacity:0.004" fill="#000000" d="M 306.5,396.5 C 307.833,397.167 307.833,397.167 306.5,396.5 Z"/></g>
<g><path style="opacity:0.004" fill="#000000" d="M 141.5,404.5 C 142.833,405.167 142.833,405.167 141.5,404.5 Z"/></g>
<g><path style="opacity:0.004" fill="#000000" d="M -0.5,433.5 C 0.833333,434.167 0.833333,434.167 -0.5,433.5 Z"/></g>
<g><path style="opacity:0.004" fill="#000000" d="M 263.5,437.5 C 264.833,438.167 264.833,438.167 263.5,437.5 Z"/></g>
<g><path style="opacity:0.004" fill="#000000" d="M -0.5,443.5 C 0.833333,444.167 0.833333,444.167 -0.5,443.5 Z"/></g>
<g><path style="opacity:0.004" fill="#000000" d="M 76.5,447.5 C 77.8333,448.167 77.8333,448.167 76.5,447.5 Z"/></g>
<g><path style="opacity:0.004" fill="#000000" d="M 39.5,448.5 C 40.8333,449.167 40.8333,449.167 39.5,448.5 Z"/></g>
<g><path style="opacity:0.004" fill="#000000" d="M 419.5,464.5 C 420.833,465.167 420.833,465.167 419.5,464.5 Z"/></g>
<g><path style="opacity:0.004" fill="#000000" d="M 168.5,468.5 C 169.833,469.167 169.833,469.167 168.5,468.5 Z"/></g>
<g><path style="opacity:0.004" fill="#000000" d="M 313.5,471.5 C 314.833,472.167 314.833,472.167 313.5,471.5 Z"/></g>
<g><path style="opacity:0.004" fill="#000000" d="M 459.5,481.5 C 460.833,482.167 460.833,482.167 459.5,481.5 Z"/></g>
<g><path style="opacity:0.004" fill="#000000" d="M 336.5,490.5 C 337.833,491.167 337.833,491.167 336.5,490.5 Z"/></g>
<g><path style="opacity:0.004" fill="#000000" d="M 472.5,494.5 C 473.833,495.167 473.833,495.167 472.5,494.5 Z"/></g>
</svg>
